# xmcd CD database file
#
# Track frame offsets:
#	150
#	39566
#	99278
#	146946
#	193734
#	211087
#	272191
#
# Disc length: 4364 seconds
#
# Revision: 1
# Processed by: cddbd v1.5.2PL0 Copyright (c) Steve Scherf et al.
# Submitted via: CDex 1.51
#
DISCID=66110a07
DTITLE=Shantala - Sri
DYEAR=2009
DGENRE=New Age
TTITLE0=Holy Ma
TTITLE1=Sri Ram Jaya Ram
TTITLE2=Om Namah Shivaya
TTITLE3=Hineni
TTITLE4=Om Namo Bhagavate - Invocation
TTITLE5=Om Namo Bhagavate - Because The One I Love
TTITLE6=Baba Hanuman
EXTD=YEAR: 2009
EXTT0=
EXTT1=
EXTT2=
EXTT3=
EXTT4=
EXTT5=
EXTT6=
PLAYORDER=
